<svg aria-hidden="true" style="width:0;height:0;position:absolute;overflow:hidden" xmlns="http://www.w3.org/2000/svg"><defs><symbol id="icon-humidity" viewBox="0 0 32 32"><path d="M28.62 9.399c-.597-1.021-1.234-1.987-1.796-2.719-.828-1.079-1.317-1.461-1.868-1.461-.523 0-.948.366-1.426.916-.352.405-.771.966-1.212 1.624a31.567 31.567 0 0 0-1.759 2.965 62.943 62.943 0 0 0-1.461-2.643c-1.203-2.059-2.486-4.001-3.613-5.47C13.637.202 12.943.001 12.436.001s-1.201.202-3.049 2.611c-1.127 1.469-2.41 3.411-3.612 5.47C4.329 10.556.967 16.721.967 20.533c0 6.324 5.145 11.469 11.469 11.469 5.934 0 10.829-4.529 11.411-10.312a6.082 6.082 0 0 0 7.183-5.973c0-1.906-1.511-4.776-2.411-6.316zM12.437 30.125c-5.29 0-9.594-4.304-9.594-9.594 0-2.233 1.6-6.358 4.279-11.034 2.392-4.173 4.524-6.857 5.315-7.519.791.662 2.923 3.345 5.315 7.519 2.679 4.676 4.279 8.8 4.279 11.034 0 5.29-4.304 9.594-9.594 9.594zm12.519-10.21a4.24 4.24 0 0 1-1.09-.143c-.207-2.066-1.186-4.634-2.256-6.925 1.043-2.328 2.589-4.622 3.345-5.498.477.55 1.322 1.709 2.262 3.37 1.214 2.147 1.939 4.014 1.939 4.995 0 2.316-1.884 4.2-4.2 4.2z"/><path d="M15.011 16.073a.938.938 0 0 0-1.281.343l-4.21 7.293a.938.938 0 0 0 1.624.938l4.21-7.293a.938.938 0 0 0-.343-1.281zM10.094 17.937a.938.938 0 1 0-.938.938.94.94 0 0 0 .938-.938zM15.406 22.312c-.516 0-.938.421-.938.938s.421.938.938.938c.516 0 .938-.421.938-.938s-.421-.938-.938-.938z"/></symbol><symbol id="icon-wind" viewBox="0 0 32 32"><path d="M25.316 2.643a6.712 6.712 0 0 0-4.185 1.472.937.937 0 1 0 1.174 1.462 4.827 4.827 0 0 1 3.011-1.059c2.652 0 4.809 2.157 4.809 4.809s-2.158 4.809-4.809 4.809H7.688a.938.938 0 0 0 0 1.876h17.628c3.686 0 6.684-2.999 6.684-6.684s-2.999-6.684-6.684-6.684z"/><path d="M5.891 12.268h10.015a.938.938 0 0 0 0-1.876H5.891a.938.938 0 0 0 0 1.876zM15.643 17.893H.937a.938.938 0 0 0 0 1.876h14.706c2.127 0 3.857 1.73 3.857 3.857s-1.73 3.857-3.857 3.857a3.872 3.872 0 0 1-2.414-.849.937.937 0 1 0-1.174 1.462 5.75 5.75 0 0 0 3.588 1.262c3.16 0 5.732-2.571 5.732-5.732s-2.571-5.732-5.732-5.732zM.938 12.268h1.265a.938.938 0 0 0 0-1.876H.938a.938.938 0 0 0 0 1.876z"/><path d="M12.25 22.563a.938.938 0 0 0-.938-.938H5.687a.938.938 0 0 0 0 1.876h5.625c.518 0 .938-.42.938-.938z"/></symbol><symbol id="icon-barometer" viewBox="0 0 32 32"><path d="M18.489 4.12c.206-.391.324-.836.324-1.308 0-1.551-1.262-2.813-2.813-2.813s-2.813 1.262-2.813 2.813c0 .472.117.917.324 1.308C6.947 5.298 1.95 11.051 1.95 17.949c0 7.747 6.303 14.05 14.05 14.05s14.05-6.303 14.05-14.05c0-6.898-4.997-12.651-11.561-13.829zM16 1.875c.517 0 .938.421.938.938s-.421.938-.938.938c-.517 0-.938-.421-.938-.938s.421-.938.938-.938zm0 28.25c-6.713 0-12.175-5.462-12.175-12.175S9.287 5.775 16 5.775c6.713 0 12.175 5.462 12.175 12.175S22.713 30.125 16 30.125z"/><path d="m23.332 10.69-.04-.044a.638.638 0 0 0-.047-.042A10.293 10.293 0 0 0 16 7.626a10.29 10.29 0 0 0-7.267 2.998l-.025.022-.019.02a10.292 10.292 0 0 0-3.014 7.284c0 .518.42.938.938.938h1.063a.938.938 0 0 0 0-1.876h-.073a8.415 8.415 0 0 1 1.805-4.342l.052.052a.935.935 0 0 0 1.326 0 .938.938 0 0 0 0-1.326l-.05-.051a8.407 8.407 0 0 1 4.328-1.794v.073a.938.938 0 1 0 1.875 0v-.073a8.405 8.405 0 0 1 4.327 1.795l-.05.05a.938.938 0 0 0 1.326 1.326l.051-.051A8.408 8.408 0 0 1 24.397 17h-.084a.938.938 0 1 0 0 1.875h1.076a.937.937 0 0 0 .936-.939 10.29 10.29 0 0 0-2.993-7.246z"/><path d="M20.251 13.698a.938.938 0 0 0-1.326 0l-3.915 3.915a2.8 2.8 0 0 0-1.407-.268.938.938 0 1 0 .131 1.87.936.936 0 0 1 1.001.989.937.937 0 0 0 1.872.109 2.813 2.813 0 0 0-.271-1.374l3.915-3.915a.938.938 0 0 0 0-1.326zM21.375 24.688h-10.75a.938.938 0 1 0 0 1.875h10.75a.938.938 0 0 0 0-1.875z"/></symbol><symbol id="icon-sunrise" viewBox="0 0 32 32"><path d="M16 5.103c.518 0 .938-.42.938-.938V.937a.938.938 0 0 0-1.876 0v3.228c0 .518.42.938.938.938zM31.063 15.063h-3.228a.938.938 0 0 0 0 1.876h3.228a.938.938 0 0 0 0-1.876zM5.103 16a.938.938 0 0 0-.938-.938H.937a.938.938 0 0 0 0 1.876h3.228c.518 0 .938-.42.938-.938zM24.368 8.569c.24 0 .48-.092.663-.275l2.282-2.282a.938.938 0 0 0-1.326-1.326l-2.282 2.282a.938.938 0 0 0 .663 1.601zM25.031 23.705a.938.938 0 0 0-1.326 1.326l2.282 2.282a.935.935 0 0 0 1.326 0 .938.938 0 0 0 0-1.326l-2.282-2.282zM6.969 23.705l-2.282 2.282a.938.938 0 0 0 1.326 1.326l2.282-2.282a.938.938 0 0 0-1.326-1.326zM6.969 8.294a.935.935 0 0 0 1.326 0 .938.938 0 0 0 0-1.326L6.013 4.686a.938.938 0 0 0-1.326 1.326l2.282 2.282zM20.182 5.937a.938.938 0 0 0 1.225-.506l1.239-2.981a.938.938 0 0 0-1.731-.72l-1.239 2.981a.937.937 0 0 0 .506 1.225zM30.269 20.915l-2.981-1.239a.938.938 0 0 0-.72 1.732l2.98 1.239a.936.936 0 0 0 1.226-.506.938.938 0 0 0-.506-1.226zM11.818 26.063a.938.938 0 0 0-1.226.506l-1.239 2.98a.938.938 0 0 0 1.731.72l1.239-2.981a.937.937 0 0 0-.506-1.225zM1.731 11.085l2.981 1.239a.938.938 0 0 0 .719-1.732L2.45 9.353a.938.938 0 0 0-.72 1.732zM26.073 11.841a.937.937 0 0 0 1.224.509l2.983-1.232a.938.938 0 0 0-.715-1.733l-2.983 1.232a.938.938 0 0 0-.509 1.224zM21.383 26.582a.938.938 0 0 0-1.733.715l1.232 2.983a.937.937 0 1 0 1.733-.715l-1.232-2.983zM5.927 20.159a.938.938 0 0 0-1.224-.509L1.72 20.882a.938.938 0 0 0 .715 1.733l2.983-1.232a.938.938 0 0 0 .509-1.224zM10.617 5.419a.937.937 0 1 0 1.733-.715l-1.232-2.983a.938.938 0 0 0-1.733.715l1.232 2.983z"/><path d="M16.938 24.637c4.351-.469 7.75-4.163 7.75-8.637 0-4.79-3.897-8.688-8.688-8.688S7.312 11.209 7.312 16c0 4.474 3.399 8.168 7.75 8.637v6.426a.938.938 0 0 0 1.876 0v-6.426zM9.187 16c0-3.756 3.056-6.813 6.813-6.813s6.813 3.056 6.813 6.813c0 3.438-2.561 6.289-5.875 6.748V19.17l.212.212a.938.938 0 0 0 1.326-1.326l-1.817-1.817a.937.937 0 0 0-1.316-.009l-1.875 1.822a.938.938 0 0 0 1.307 1.345l.289-.281v3.633c-3.314-.458-5.875-3.309-5.875-6.748z"/></symbol><symbol id="icon-sunset" viewBox="0 0 32 32"><path d="M16 5.103c.518 0 .938-.42.938-.938V.937a.938.938 0 0 0-1.876 0v3.228c0 .518.42.938.938.938zM31.063 15.063h-3.228a.938.938 0 0 0 0 1.876h3.228a.938.938 0 0 0 0-1.876zM5.103 16a.938.938 0 0 0-.938-.938H.937a.938.938 0 0 0 0 1.876h3.228c.518 0 .938-.42.938-.938zM24.368 8.569c.24 0 .48-.092.663-.275l2.282-2.282a.938.938 0 0 0-1.326-1.326l-2.282 2.282a.938.938 0 0 0 .663 1.601zM25.031 23.705a.938.938 0 0 0-1.326 1.326l2.282 2.282a.935.935 0 0 0 1.326 0 .938.938 0 0 0 0-1.326l-2.282-2.282zM6.969 23.705l-2.282 2.282a.938.938 0 0 0 1.326 1.326l2.282-2.282a.938.938 0 0 0-1.326-1.326zM6.969 8.294a.935.935 0 0 0 1.326 0 .938.938 0 0 0 0-1.326L6.013 4.686a.938.938 0 0 0-1.326 1.326l2.282 2.282zM20.182 5.937a.938.938 0 0 0 1.225-.506l1.239-2.981a.938.938 0 0 0-1.731-.72l-1.239 2.981a.937.937 0 0 0 .506 1.225zM30.269 20.915l-2.98-1.239a.938.938 0 0 0-.72 1.732l2.98 1.239a.935.935 0 0 0 1.225-.506.938.938 0 0 0-.506-1.226zM11.818 26.063a.938.938 0 0 0-1.226.506l-1.239 2.98a.938.938 0 0 0 1.732.72l1.239-2.98a.938.938 0 0 0-.506-1.226zM1.731 11.085l2.981 1.239a.938.938 0 0 0 .719-1.732L2.45 9.353a.938.938 0 0 0-.72 1.732zM26.073 11.841a.937.937 0 0 0 1.224.509l2.983-1.232a.938.938 0 0 0-.715-1.733l-2.983 1.232a.938.938 0 0 0-.509 1.224zM21.383 26.582a.938.938 0 0 0-1.733.715l1.232 2.983a.939.939 0 0 0 1.224.509.938.938 0 0 0 .509-1.224l-1.232-2.983zM5.927 20.158a.938.938 0 0 0-1.224-.509L1.72 20.881a.938.938 0 0 0 .715 1.733l2.983-1.232a.938.938 0 0 0 .509-1.224zM10.617 5.419a.937.937 0 1 0 1.733-.715l-1.232-2.983a.938.938 0 0 0-1.733.715l1.232 2.983z"/><path d="m17.15 28.582-.212.212v-4.158c4.351-.469 7.75-4.163 7.75-8.637 0-4.79-3.897-8.688-8.688-8.688s-8.688 3.897-8.688 8.688c0 4.474 3.399 8.168 7.75 8.637v4.213l-.289-.281a.938.938 0 0 0-1.307 1.345l1.875 1.822a.934.934 0 0 0 1.316-.01l1.817-1.817a.938.938 0 0 0-1.326-1.326zM9.187 16c0-3.756 3.056-6.813 6.813-6.813s6.813 3.056 6.813 6.813c0 3.438-2.561 6.289-5.875 6.748v-2.225a.938.938 0 0 0-1.876 0v2.225C11.748 22.29 9.187 19.439 9.187 16z"/></symbol><symbol id="icon-weather" viewBox="0 0 32 32"><path fill="#fdbf00" style="fill:var(--color1,#fdbf00)" d="M16 25.375c-5.169 0-9.375-4.206-9.375-9.375S10.831 6.625 16 6.625c.518 0 .938.42.938.938v16.875c0 .518-.42.938-.938.938z"/><path fill="#7dd5f4" style="fill:var(--color2,#7dd5f4)" d="M31.063 15.063h-1.457l.714-1.237a.938.938 0 0 0-1.624-.938l-1.256 2.175h-9.177l6.489-6.489 2.425.65a.937.937 0 0 0 .485-1.811l-1.38-.37.942-.942a.938.938 0 0 0-1.326-1.326l-.942.942-.37-1.38a.938.938 0 0 0-1.811.485l.65 2.425-6.489 6.489V4.559l2.175-1.256a.938.938 0 0 0-.938-1.624l-1.237.714V.936a.938.938 0 0 0-1.876 0v30.125a.938.938 0 0 0 1.876 0v-1.457l1.237.714a.938.938 0 1 0 .938-1.624l-2.175-1.256v-9.177l6.489 6.489-.65 2.426a.938.938 0 0 0 1.811.485l.37-1.38.942.942a.935.935 0 0 0 1.326 0 .938.938 0 0 0 0-1.326l-.942-.942 1.38-.37a.938.938 0 0 0-.485-1.811l-2.425.65-6.489-6.489h9.177l1.256 2.175a.938.938 0 1 0 1.624-.938l-.714-1.237h1.457a.938.938 0 0 0 0-1.876z"/><path fill="#fdbf00" style="fill:var(--color1,#fdbf00)" d="M3.941 16.937H.938a.938.938 0 0 1 0-1.876h3.003a.938.938 0 0 1 0 1.876zM7.473 8.41a.931.931 0 0 1-.663-.275L4.686 6.011a.938.938 0 0 1 1.326-1.326l2.124 2.124a.938.938 0 0 1-.663 1.601zM5.349 27.588a.938.938 0 0 1-.663-1.601l2.124-2.124a.938.938 0 0 1 1.326 1.326l-2.124 2.124a.935.935 0 0 1-.663.275zM11.481 5.758a.936.936 0 0 1-.869-.586L9.486 2.388a.937.937 0 1 1 1.739-.702l1.126 2.784a.937.937 0 0 1-.869 1.289zM2.036 22.583a.937.937 0 0 1-.351-1.806l2.784-1.126a.937.937 0 1 1 .702 1.738l-2.784 1.126a.926.926 0 0 1-.351.069zM10.288 30.875a.938.938 0 0 1-.867-1.293l1.139-2.779a.938.938 0 0 1 1.735.711l-1.139 2.779a.938.938 0 0 1-.868.582zM4.841 12.365a.947.947 0 0 1-.355-.07l-2.779-1.139a.938.938 0 0 1 .711-1.735l2.779 1.139a.938.938 0 0 1-.356 1.805z"/><path fill="#4793ff" style="fill:var(--color3,#4793ff)" d="M31.063 15.063h-1.457l.714-1.237a.938.938 0 0 0-1.624-.938l-1.256 2.175h-9.177l6.489-6.489 2.425.65a.937.937 0 0 0 .485-1.811l-1.38-.37.942-.942a.938.938 0 0 0-1.326-1.326l-.942.942-.37-1.38a.938.938 0 0 0-1.811.485l.65 2.425-6.489 6.489V4.559l2.175-1.256a.938.938 0 0 0-.938-1.624l-1.237.714V.936a.938.938 0 0 0-.938-.938v32c.518 0 .938-.42.938-.938v-1.457l1.237.714a.938.938 0 1 0 .938-1.624l-2.175-1.256V18.26l6.489 6.489-.65 2.426a.938.938 0 0 0 1.811.485l.37-1.38.942.942a.935.935 0 0 0 1.326 0 .938.938 0 0 0 0-1.326l-.942-.942 1.38-.37a.938.938 0 0 0-.485-1.811l-2.425.65-6.489-6.489h9.177l1.256 2.175a.938.938 0 1 0 1.624-.938l-.714-1.237h1.457a.938.938 0 0 0 0-1.876z"/></symbol><symbol id="icon-sun" viewBox="0 0 32 32"><path fill="#fdbf00" style="fill:var(--color1,#fdbf00)" d="M16 24.688c-4.79 0-8.688-3.897-8.688-8.688S11.209 7.312 16 7.312c4.79 0 8.688 3.897 8.688 8.688S20.791 24.688 16 24.688zM16 5.103a.938.938 0 0 1-.938-.938V.937a.938.938 0 0 1 1.876 0v3.228c0 .518-.42.938-.938.938z"/><path fill="#ff8856" style="fill:var(--color4,#ff8856)" d="M31.063 16.938h-3.228a.938.938 0 0 1 0-1.876h3.228a.938.938 0 0 1 0 1.876z"/><path fill="#fdbf00" style="fill:var(--color1,#fdbf00)" d="M16 32a.938.938 0 0 1-.938-.938v-3.228a.938.938 0 0 1 1.876 0v3.228c0 .518-.42.938-.938.938zM4.165 16.938H.937a.938.938 0 0 1 0-1.876h3.228a.938.938 0 0 1 0 1.876z"/><path fill="#ff8856" style="fill:var(--color4,#ff8856)" d="M24.369 8.569a.938.938 0 0 1-.663-1.601l2.282-2.282a.938.938 0 0 1 1.326 1.326l-2.282 2.282a.935.935 0 0 1-.663.275zM26.651 27.588a.935.935 0 0 1-.663-.275l-2.282-2.282a.938.938 0 0 1 1.326-1.326l2.282 2.282a.938.938 0 0 1-.663 1.601z"/><path fill="#fdbf00" style="fill:var(--color1,#fdbf00)" d="M5.349 27.588a.938.938 0 0 1-.663-1.601l2.282-2.282a.938.938 0 0 1 1.326 1.326l-2.282 2.282a.935.935 0 0 1-.663.275zM7.631 8.569a.931.931 0 0 1-.663-.275L4.686 6.012a.938.938 0 0 1 1.326-1.326l2.282 2.282a.938.938 0 0 1-.663 1.601z"/><path fill="#ff8856" style="fill:var(--color4,#ff8856)" d="M20.541 6.009a.938.938 0 0 1-.865-1.298l1.239-2.981a.938.938 0 0 1 1.732.72l-1.239 2.981a.94.94 0 0 1-.866.578zM29.909 22.718a.936.936 0 0 1-.36-.072l-2.98-1.239a.938.938 0 1 1 .72-1.732l2.981 1.239a.937.937 0 0 1-.36 1.803z"/><path fill="#fdbf00" style="fill:var(--color1,#fdbf00)" d="M10.219 30.847a.936.936 0 0 1-.866-1.297l1.239-2.981a.938.938 0 1 1 1.732.72l-1.239 2.98a.94.94 0 0 1-.866.578zM5.071 12.396a.928.928 0 0 1-.359-.072l-2.981-1.239a.938.938 0 1 1 .72-1.732l2.981 1.239a.938.938 0 0 1-.36 1.804z"/><path fill="#ff8856" style="fill:var(--color4,#ff8856)" d="M26.94 12.421a.939.939 0 0 1-.358-1.804l2.983-1.232a.937.937 0 0 1 .715 1.733l-2.983 1.232a.94.94 0 0 1-.357.071zM21.748 30.861a.937.937 0 0 1-.867-.58l-1.232-2.983a.936.936 0 1 1 1.733-.715l1.232 2.983a.936.936 0 0 1-.866 1.295z"/><path fill="#fdbf00" style="fill:var(--color1,#fdbf00)" d="M2.078 22.685a.937.937 0 0 1-.358-1.804l2.983-1.232a.936.936 0 1 1 .715 1.733l-2.983 1.232a.94.94 0 0 1-.357.071zM11.484 5.999a.937.937 0 0 1-.867-.58L9.385 2.436a.936.936 0 1 1 1.733-.715l1.232 2.983a.936.936 0 0 1-.866 1.295z"/><path fill="#ff8856" style="fill:var(--color4,#ff8856)" d="M16 0v5.103c.518 0 .938-.42.938-.938V.937A.938.938 0 0 0 16-.001zM16 7.313v17.375c4.79 0 8.688-3.897 8.688-8.688S20.791 7.312 16 7.312zM16 26.897V32c.518 0 .938-.42.938-.938v-3.228a.938.938 0 0 0-.938-.938z"/></symbol><symbol id="icon-snow" viewBox="0 0 32 32"><path fill="#7dd5f4" style="fill:var(--color2,#7dd5f4)" d="M19.531 28.438a.938.938 0 0 0-.938-.938h-.33l.234-.234a.938.938 0 0 0-1.326-1.326l-.234.234v-.362a.937.937 0 0 0-1.876 0v.362l-.256-.256a.938.938 0 0 0-1.326 1.326l.256.256h-.33a.938.938 0 0 0 0 1.876h.33l-.234.234a.938.938 0 0 0 1.326 1.326l.234-.234v.362a.938.938 0 0 0 1.876 0v-.362l.256.256a.935.935 0 0 0 1.326 0 .938.938 0 0 0 0-1.326l-.256-.256h.33c.518 0 .938-.42.938-.938zM7.063 22.5a.938.938 0 0 0-.938-.938h-.33l.234-.234a.938.938 0 0 0-1.326-1.326l-.234.234v-.362a.938.938 0 0 0-1.876 0v.362l-.256-.256a.938.938 0 0 0-1.326 1.326l.256.256H.936a.938.938 0 0 0 0 1.876h.33l-.234.234a.938.938 0 0 0 1.326 1.326l.234-.234v.362a.938.938 0 0 0 1.876 0v-.362l.256.256a.935.935 0 0 0 1.326 0 .938.938 0 0 0 0-1.326l-.256-.256h.33c.518 0 .938-.42.938-.938z"/><path fill="#4793ff" style="fill:var(--color3,#4793ff)" d="M32 22.5a.938.938 0 0 0-.938-.938h-.33l.234-.234a.938.938 0 0 0-1.326-1.326l-.234.234v-.362a.938.938 0 0 0-1.876 0v.362l-.256-.256a.938.938 0 0 0-1.326 1.326l.256.256h-.33a.938.938 0 0 0 0 1.876h.33l-.234.234a.938.938 0 0 0 1.326 1.326l.234-.234v.362a.938.938 0 0 0 1.876 0v-.362l.256.256a.935.935 0 0 0 1.326 0 .938.938 0 0 0 0-1.326l-.256-.256h.33c.518 0 .938-.42.938-.938z"/><path fill="#fff4f4" style="fill:var(--color5,#fff4f4)" d="M10.781 23.375c.516 0 .938-.421.938-.938s-.421-.938-.938-.938-.938.421-.938.938a.94.94 0 0 0 .938.938zM21.219 23.375c.516 0 .938-.421.938-.938s-.421-.938-.938-.938-.938.421-.938.938a.94.94 0 0 0 .938.938zM5.688 32c.516 0 .938-.421.938-.938s-.421-.938-.938-.938c-.516 0-.938.421-.938.938s.421.938.938.938zM26.313 32c.516 0 .938-.421.938-.938s-.421-.938-.938-.938c-.516 0-.938.421-.938.938s.421.938.938.938zM16 19.938a5.516 5.516 0 0 1-3.452-1.218 5.514 5.514 0 0 1-1.364-1.628 4.574 4.574 0 0 1-2.553.784 4.579 4.579 0 0 1-4.4-3.356 4.56 4.56 0 0 1-4.23-4.55 4.568 4.568 0 0 1 4.242-4.551 4.557 4.557 0 0 1 1.288-2.095 4.552 4.552 0 0 1 5.635-.443 5.542 5.542 0 0 1 1.367-1.648C13.509.439 14.741.002 16.001.002s2.492.437 3.468 1.231a5.53 5.53 0 0 1 1.367 1.648 4.572 4.572 0 0 1 2.535-.772c1.153 0 2.254.431 3.1 1.215a4.539 4.539 0 0 1 1.288 2.096 4.562 4.562 0 0 1 .012 9.101 4.579 4.579 0 0 1-4.4 3.356c-.917 0-1.806-.28-2.553-.784a5.527 5.527 0 0 1-1.364 1.628 5.51 5.51 0 0 1-3.452 1.218z"/><path fill="#f6efea" style="fill:var(--color6,#f6efea)" d="M30.457 6.549a4.567 4.567 0 0 0-2.699-1.131 4.56 4.56 0 0 0-6.923-2.539 5.539 5.539 0 0 0-1.366-1.648A5.511 5.511 0 0 0 16.001 0v19.937a5.516 5.516 0 0 0 3.452-1.218 5.533 5.533 0 0 0 1.365-1.628 4.574 4.574 0 0 0 2.553.784 4.579 4.579 0 0 0 4.4-3.356 4.564 4.564 0 0 0 2.687-7.97z"/><path fill="#4793ff" style="fill:var(--color3,#4793ff)" d="M19.531 28.438a.938.938 0 0 0-.938-.938h-.33l.234-.234a.938.938 0 0 0-1.326-1.326l-.234.234v-.362a.937.937 0 0 0-.938-.937V32c.518 0 .938-.42.938-.938V30.7l.256.256a.935.935 0 0 0 1.326 0 .938.938 0 0 0 0-1.326l-.256-.256h.33c.518 0 .938-.42.938-.937z"/></symbol><symbol id="icon-clouds-and-sun" viewBox="0 0 32 32"><path fill="#fdbf00" style="fill:var(--color1,#fdbf00)" d="M19.218 21.205c-3.847 0-6.995-3.112-7.03-6.967-.036-3.877 3.09-7.06 6.967-7.096h.066c3.847 0 6.995 3.112 7.03 6.967.036 3.877-3.09 7.06-6.966 7.096h-.065z"/><path fill="#ff8856" style="fill:var(--color4,#ff8856)" d="M19.22 7.142h-.001v14.063h.065c3.877-.036 7.002-3.219 6.966-7.096-.035-3.855-3.183-6.967-7.03-6.967z"/><path fill="#fdbf00" style="fill:var(--color1,#fdbf00)" d="M19.246 5.806a.937.937 0 0 1-.937-.929l-.023-2.538a.937.937 0 0 1 .929-.946h.009c.514 0 .932.414.937.929l.023 2.538a.937.937 0 0 1-.929.946h-.009z"/><path fill="#ff8856" style="fill:var(--color4,#ff8856)" d="M28.525 15.026a.937.937 0 0 1-.008-1.875l2.547-.023a.937.937 0 0 1 .008 1.875l-2.538.023h-.009zM25.851 8.471a.936.936 0 0 1-.669-1.594l1.778-1.811a.938.938 0 0 1 1.338 1.314L26.52 8.191a.933.933 0 0 1-.669.281z"/><path fill="#fdbf00" style="fill:var(--color1,#fdbf00)" d="M12.691 8.592a.936.936 0 0 1-.657-.268l-1.811-1.778a.938.938 0 0 1 1.314-1.338l1.811 1.778a.938.938 0 0 1-.657 1.607z"/><path fill="#ff8856" style="fill:var(--color4,#ff8856)" d="M22.824 6.486a.937.937 0 0 1-.869-1.29l.952-2.352a.938.938 0 0 1 1.738.704L23.693 5.9a.938.938 0 0 1-.869.586zM30.31 19.556a.926.926 0 0 1-.351-.069l-2.352-.952a.937.937 0 1 1 .704-1.738l2.352.952a.937.937 0 0 1-.352 1.807z"/><path fill="#fdbf00" style="fill:var(--color1,#fdbf00)" d="M10.706 11.619a.926.926 0 0 1-.351-.069l-2.352-.952a.937.937 0 1 1 .704-1.738l2.352.952a.937.937 0 0 1-.352 1.807z"/><path fill="#ff8856" style="fill:var(--color4,#ff8856)" d="M27.901 11.482a.937.937 0 0 1-.366-1.801l2.337-.99a.937.937 0 1 1 .731 1.727l-2.337.99a.941.941 0 0 1-.365.074z"/><path fill="#fdbf00" style="fill:var(--color1,#fdbf00)" d="M15.702 6.543a.94.94 0 0 1-.864-.572l-.99-2.337a.938.938 0 0 1 1.726-.731l.99 2.337a.937.937 0 0 1-.863 1.304z"/><path fill="#fff4f4" style="fill:var(--color5,#fff4f4)" d="M13.937 30.607a4.883 4.883 0 0 1-4.201-2.403 4.074 4.074 0 0 1-2.159.623 4.081 4.081 0 0 1-3.897-2.905 4.066 4.066 0 0 1 .011-8.097 4.064 4.064 0 0 1 1.123-1.782 4.056 4.056 0 0 1 4.906-.47 4.875 4.875 0 0 1 8.436 0 4.08 4.08 0 0 1 2.143-.613 4.05 4.05 0 0 1 2.763 1.083c.53.491.914 1.105 1.123 1.782a4.065 4.065 0 0 1 .011 8.097 4.083 4.083 0 0 1-3.897 2.905 4.071 4.071 0 0 1-2.159-.623 4.895 4.895 0 0 1-1.141 1.323 4.885 4.885 0 0 1-3.06 1.08z"/><path fill="#f6efea" style="fill:var(--color6,#f6efea)" d="M26.5 18.827a4.079 4.079 0 0 0-2.317-1.001 4.058 4.058 0 0 0-1.123-1.782 4.056 4.056 0 0 0-4.906-.47 4.875 4.875 0 0 0-4.218-2.431v17.464a4.877 4.877 0 0 0 4.201-2.403c.64.401 1.389.623 2.159.623a4.081 4.081 0 0 0 3.897-2.905 4.066 4.066 0 0 0 2.306-7.096z"/><path fill="#ff8856" style="fill:var(--color4,#ff8856)" d="M20.16 2.322a.937.937 0 0 0-.937-.929h-.004v4.411l.028.001h.009a.937.937 0 0 0 .929-.946l-.023-2.538z"/></symbol><symbol id="icon-cloudy" viewBox="0 0 32 32"><path fill="#eee1dc" style="fill:var(--color7,#eee1dc)" d="M26.888 20.96c-3.317 0-11.015-2.423-14.428-5.445-1.259-1.114-1.897-2.262-1.897-3.411a4.63 4.63 0 0 1 5.908-4.444 4.62 4.62 0 0 1 4.374-3.114c1.671 0 3.199.909 4.013 2.325a4.63 4.63 0 0 1 4.933 5.494 4.653 4.653 0 0 1 2.21 3.944 4.37 4.37 0 0 1-1.377 3.194c-.81.77-1.923 1.276-3.134 1.424-.179.022-.38.033-.601.033z"/><path fill="#e0d2cd" style="fill:var(--color8,#e0d2cd)" d="M29.79 12.366a4.63 4.63 0 0 0-4.933-5.494 4.647 4.647 0 0 0-3.576-2.304v15.323c2.204.673 4.264 1.07 5.607 1.07.22 0 .421-.011.601-.033 1.211-.148 2.324-.654 3.134-1.424A4.373 4.373 0 0 0 32 16.31a4.654 4.654 0 0 0-2.21-3.944z"/><path fill="#fff4f4" style="fill:var(--color5,#fff4f4)" d="M13.321 27.454a4.7 4.7 0 0 1-4.017-2.272 3.927 3.927 0 0 1-2.042.576 3.933 3.933 0 0 1-3.746-2.77 3.919 3.919 0 0 1 .011-7.795A3.907 3.907 0 0 1 4.6 13.505a3.903 3.903 0 0 1 2.662-1.043c.72 0 1.421.202 2.026.567a4.697 4.697 0 0 1 4.033-2.3 4.697 4.697 0 0 1 4.033 2.3 3.91 3.91 0 0 1 4.688.476 3.91 3.91 0 0 1 1.073 1.689 3.918 3.918 0 0 1 .011 7.795 3.932 3.932 0 0 1-3.746 2.77 3.93 3.93 0 0 1-2.042-.576 4.7 4.7 0 0 1-4.017 2.272z"/><path fill="#f6efea" style="fill:var(--color6,#f6efea)" d="M25.317 16.155a3.922 3.922 0 0 0-2.203-.961 3.91 3.91 0 0 0-1.073-1.689 3.903 3.903 0 0 0-2.662-1.043c-.72 0-1.421.202-2.026.567a4.697 4.697 0 0 0-4.033-2.3v16.725a4.7 4.7 0 0 0 4.017-2.272 3.927 3.927 0 0 0 2.042.576 3.933 3.933 0 0 0 3.746-2.77 3.92 3.92 0 0 0 2.192-6.834z"/></symbol><symbol id="icon-star-1" viewBox="0 0 32 32"><path fill="none" stroke="#7e8691" style="stroke:var(--color9,#7e8691)" stroke-width="1.454" d="m16 3.808 3.064 9.429h9.915l-8.021 5.828.163.503 2.901 8.927-8.021-5.828-8.021 5.828 3.064-9.43-8.021-5.828h9.915l3.064-9.429z"/></symbol><symbol id="icon-location" viewBox="0 0 22 22" fill="none"><circle cx="11" cy="11" r="8" stroke="#AEB3B9" stroke-width="2"/><path fill="#AEB3B9" d="M10 0h2v4h-2zM10 18h2v4h-2z"/><path transform="rotate(90 4 10)" fill="#AEB3B9" d="M4 10h2v4H4z"/><path transform="rotate(90 22 10)" fill="#AEB3B9" d="M22 10h2v4h-2z"/></symbol><symbol id="icon-close" viewBox="0 0 32 32"><path stroke-width="4" d="m2.667 2.667 26.667 26.667m-26.667-.001L29.334 2.666"/></symbol><symbol id="chart-down" viewBox="0 0 28 28"><circle cx="14" cy="14" r="14" transform="rotate(90 14 14)" fill="#fff" fill-opacity=".2"/><path d="m18 12-4 4-4-4" stroke="#fff" stroke-width="1.5"/></symbol><symbol id="chart-up" viewBox="0 0 28 28"><circle cx="14" cy="14" r="14" transform="rotate(-90 14 14)" fill="#fff" fill-opacity=".2"/><path d="m10 16 4-4 4 4" stroke="#fff" stroke-width="1.5"/></symbol></defs></svg>